<?xml version="1.0" encoding="UTF-8" standalone="no"?>
<!-- Created with Inkscape (http://www.inkscape.org/) -->

<svg
   width="74.661331mm"
   height="18.812811mm"
   viewBox="0 0 74.661331 18.812811"
   version="1.1"
   id="svg1"
   inkscape:version="1.3.2 (091e20e, 2023-11-25)"
   sodipodi:docname="logo.svg"
   xmlns:inkscape="http://www.inkscape.org/namespaces/inkscape"
   xmlns:sodipodi="http://sodipodi.sourceforge.net/DTD/sodipodi-0.dtd"
   xmlns="http://www.w3.org/2000/svg"
   xmlns:svg="http://www.w3.org/2000/svg">
  <sodipodi:namedview
     id="namedview1"
     pagecolor="#ffffff"
     bordercolor="#000000"
     borderopacity="0.25"
     inkscape:showpageshadow="2"
     inkscape:pageopacity="0.0"
     inkscape:pagecheckerboard="0"
     inkscape:deskcolor="#d1d1d1"
     inkscape:document-units="mm"
     inkscape:zoom="1.6819304"
     inkscape:cx="221.17443"
     inkscape:cy="96.020619"
     inkscape:window-width="1512"
     inkscape:window-height="916"
     inkscape:window-x="-12"
     inkscape:window-y="42"
     inkscape:window-maximized="0"
     inkscape:current-layer="layer1" />
  <defs
     id="defs1" />
  <g
     inkscape:label="Layer 1"
     inkscape:groupmode="layer"
     id="layer1"
     transform="translate(-4.984495,-18.684948)">
    <g
       id="text1"
       style="font-size:18.3444px;font-family:Gridtile;-inkscape-font-specification:'Gridtile, Normal';fill:#fa9ed6;fill-rule:evenodd;stroke:#ecace7;stroke-width:0.264583;stroke-opacity:0.795745"
       aria-label="scitiff">
      <path
         style="fill:#78c878;stroke:#25a137"
         d="m 7.7665332,33.085107 v -1.83444 h -2.44592 v 1.83444 z m 0,-8.153067 V 23.0976 h -2.44592 v 1.83444 z m 0,-2.038267 v -1.83444 h -2.44592 v 1.83444 z M 10.41628,33.085107 v -1.83444 H 7.9703599 v 1.83444 z m 0,-4.076534 v -1.83444 H 7.9703599 v 1.83444 z m 0,-4.076533 V 23.0976 H 7.9703599 v 1.83444 z m 0,-2.038267 v -1.83444 H 7.9703599 v 1.83444 z m 2.649747,6.1148 v -1.83444 h -2.44592 v 1.83444 z m 0,-4.076533 V 23.0976 h -2.44592 v 1.83444 z m 0,-2.038267 v -1.83444 h -2.44592 v 1.83444 z M 15.9196,37.365467 H 5.1167865 V 18.81724 H 15.9196 Z m -0.203827,-2.242093 v -1.83444 h -2.44592 v 1.83444 z m 0,-2.038267 v -1.83444 h -2.44592 v 1.83444 z m 0,-2.038267 V 29.2124 h -2.44592 v 1.83444 z m 0,-2.038267 v -1.83444 h -2.44592 v 1.83444 z m 0,-2.038266 v -1.83444 h -2.44592 v 1.83444 z m 0,-2.038267 V 23.0976 h -2.44592 v 1.83444 z m 0,-2.038267 v -1.83444 h -2.44592 v 1.83444 z M 7.7665332,37.16164 V 35.3272 h -2.44592 v 1.83444 z m 2.6497468,0 V 35.3272 H 7.9703599 v 1.83444 z m 2.649747,0 V 35.3272 h -2.44592 v 1.83444 z m 2.649746,0 V 35.3272 h -2.44592 v 1.83444 z M 7.7665332,20.855507 v -1.83444 h -2.44592 v 1.83444 z m 2.6497468,0 v -1.83444 H 7.9703599 v 1.83444 z m 2.649747,0 v -1.83444 h -2.44592 v 1.83444 z m 2.649746,0 v -1.83444 h -2.44592 v 1.83444 z m 2.649749,4.076533 V 23.0976 h -2.44592 v 1.83444 z m 0,-2.038267 v -1.83444 h -2.44592 v 1.83444 z m 2.649746,10.191334 v -1.83444 h -2.44592 v 1.83444 z m 0,-2.038267 V 29.2124 h -2.44592 v 1.83444 z m 0,-2.038267 v -1.83444 h -2.44592 v 1.83444 z m 0,-4.076533 V 23.0976 h -2.44592 v 1.83444 z m 0,-2.038267 v -1.83444 h -2.44592 v 1.83444 z m 2.649747,8.153067 V 29.2124 h -2.44592 v 1.83444 z m 0,-6.1148 V 23.0976 h -2.44592 v 1.83444 z m 0,-2.038267 v -1.83444 h -2.44592 v 1.83444 z m 2.853574,14.471694 H 15.715775 V 18.81724 h 10.802814 z m -0.203827,-2.242093 v -1.83444 h -2.44592 v 1.83444 z m 0,-2.038267 v -1.83444 h -2.44592 v 1.83444 z m 0,-2.038267 V 29.2124 h -2.44592 v 1.83444 z m 0,-2.038267 v -1.83444 h -2.44592 v 1.83444 z m 0,-2.038266 v -1.83444 h -2.44592 v 1.83444 z m 0,-2.038267 V 23.0976 h -2.44592 v 1.83444 z m 0,-2.038267 v -1.83444 h -2.44592 v 1.83444 z M 18.365522,37.16164 V 35.3272 h -2.44592 v 1.83444 z m 2.649746,0 V 35.3272 h -2.44592 v 1.83444 z m 2.649747,0 V 35.3272 h -2.44592 v 1.83444 z m 2.649747,0 V 35.3272 h -2.44592 v 1.83444 z m -7.94924,-16.306133 v -1.83444 h -2.44592 v 1.83444 z m 2.649746,0 v -1.83444 h -2.44592 v 1.83444 z m 2.649747,0 v -1.83444 h -2.44592 v 1.83444 z m 2.649747,0 v -1.83444 h -2.44592 v 1.83444 z m 2.649748,12.2296 v -1.83444 h -2.44592 v 1.83444 z m 0,-2.038267 V 29.2124 h -2.44592 v 1.83444 z m 0,-2.038267 v -1.83444 h -2.44592 v 1.83444 z m 0,-4.076533 V 23.0976 h -2.44592 v 1.83444 z m 0,-2.038267 v -1.83444 h -2.44592 v 1.83444 z m 2.649747,2.038267 V 23.0976 h -2.44592 v 1.83444 z m 2.649747,8.153067 v -1.83444 h -2.44592 v 1.83444 z m 0,-2.038267 V 29.2124 h -2.44592 v 1.83444 z m 0,-2.038267 v -1.83444 h -2.44592 v 1.83444 z m 0,-2.038266 v -1.83444 h -2.44592 v 1.83444 z m 0,-2.038267 V 23.0976 h -2.44592 v 1.83444 z m 0,-2.038267 v -1.83444 h -2.44592 v 1.83444 z m 2.853573,14.471694 H 26.314764 V 18.81724 H 37.117577 Z M 36.91375,35.123374 v -1.83444 h -2.44592 v 1.83444 z m 0,-2.038267 v -1.83444 h -2.44592 v 1.83444 z m 0,-2.038267 V 29.2124 h -2.44592 v 1.83444 z m 0,-2.038267 v -1.83444 h -2.44592 v 1.83444 z m 0,-2.038266 v -1.83444 h -2.44592 v 1.83444 z m 0,-2.038267 V 23.0976 h -2.44592 v 1.83444 z m 0,-2.038267 v -1.83444 h -2.44592 v 1.83444 z M 28.96451,37.16164 V 35.3272 h -2.44592 v 1.83444 z m 2.649747,0 V 35.3272 h -2.44592 v 1.83444 z m 2.649747,0 V 35.3272 h -2.44592 v 1.83444 z m 2.649746,0 V 35.3272 h -2.44592 v 1.83444 z M 28.96451,20.855507 v -1.83444 h -2.44592 v 1.83444 z m 2.649747,0 v -1.83444 h -2.44592 v 1.83444 z m 2.649747,0 v -1.83444 h -2.44592 v 1.83444 z m 2.649746,0 v -1.83444 h -2.44592 v 1.83444 z"
         id="path6" />
      <path
         style="fill:#ff0000;stroke:#ff0000;stroke-opacity:0.634518"
         d="m 39.5635,35.123374 v -1.83444 h -2.44592 v 1.83444 z m 0,-2.038267 v -1.83444 h -2.44592 v 1.83444 z m 0,-2.038267 V 29.2124 h -2.44592 v 1.83444 z m 0,-2.038267 v -1.83444 h -2.44592 v 1.83444 z m 0,-4.076533 V 23.0976 h -2.44592 v 1.83444 z m 0,-2.038267 v -1.83444 h -2.44592 v 1.83444 z m 5.299493,10.191334 v -1.83444 h -2.44592 v 1.83444 z m 0,-2.038267 V 29.2124 h -2.44592 v 1.83444 z m 0,-2.038267 v -1.83444 h -2.44592 v 1.83444 z m 0,-4.076533 V 23.0976 h -2.44592 v 1.83444 z m 0,-2.038267 v -1.83444 h -2.44592 v 1.83444 z m 2.853574,14.471694 H 36.913753 V 18.81724 H 47.716567 Z M 47.51274,35.123374 v -1.83444 h -2.44592 v 1.83444 z m 0,-2.038267 v -1.83444 h -2.44592 v 1.83444 z m 0,-2.038267 V 29.2124 h -2.44592 v 1.83444 z m 0,-2.038267 v -1.83444 h -2.44592 v 1.83444 z m 0,-2.038266 v -1.83444 h -2.44592 v 1.83444 z m 0,-2.038267 V 23.0976 h -2.44592 v 1.83444 z m 0,-2.038267 v -1.83444 h -2.44592 v 1.83444 z M 39.5635,37.16164 V 35.3272 h -2.44592 v 1.83444 z m 2.649746,0 V 35.3272 h -2.44592 v 1.83444 z m 2.649747,0 V 35.3272 h -2.44592 v 1.83444 z m 2.649747,0 V 35.3272 h -2.44592 v 1.83444 z M 39.5635,20.855507 v -1.83444 h -2.44592 v 1.83444 z m 2.649746,0 v -1.83444 h -2.44592 v 1.83444 z m 2.649747,0 v -1.83444 h -2.44592 v 1.83444 z m 2.649747,0 v -1.83444 h -2.44592 v 1.83444 z"
         id="path7" />
      <path
         style="fill:#00ff00;stroke:#00ff00;stroke-opacity:0.751269"
         d="m 50.162487,33.085107 v -1.83444 h -2.44592 v 1.83444 z m 0,-2.038267 V 29.2124 h -2.44592 v 1.83444 z m 0,-2.038267 v -1.83444 h -2.44592 v 1.83444 z m 0,-4.076533 V 23.0976 h -2.44592 v 1.83444 z m 0,-2.038267 v -1.83444 h -2.44592 v 1.83444 z m 2.649747,2.038267 V 23.0976 h -2.44592 v 1.83444 z m 2.649747,8.153067 v -1.83444 h -2.44592 v 1.83444 z m 0,-2.038267 V 29.2124 h -2.44592 v 1.83444 z m 0,-2.038267 v -1.83444 h -2.44592 v 1.83444 z m 0,-2.038266 v -1.83444 h -2.44592 v 1.83444 z m 0,-2.038267 V 23.0976 h -2.44592 v 1.83444 z m 0,-2.038267 v -1.83444 h -2.44592 v 1.83444 z m 2.853573,14.471694 H 47.512741 V 18.81724 h 10.802813 z m -0.203826,-2.242093 v -1.83444 h -2.445921 v 1.83444 z m 0,-2.038267 v -1.83444 h -2.445921 v 1.83444 z m 0,-2.038267 V 29.2124 h -2.445921 v 1.83444 z m 0,-2.038267 v -1.83444 h -2.445921 v 1.83444 z m 0,-2.038266 v -1.83444 h -2.445921 v 1.83444 z m 0,-2.038267 V 23.0976 h -2.445921 v 1.83444 z m 0,-2.038267 v -1.83444 h -2.445921 v 1.83444 z M 50.162487,37.16164 V 35.3272 h -2.44592 v 1.83444 z m 2.649747,0 V 35.3272 h -2.44592 v 1.83444 z m 2.649747,0 V 35.3272 h -2.44592 v 1.83444 z m 2.649747,0 V 35.3272 h -2.445921 v 1.83444 z M 50.162487,20.855507 v -1.83444 h -2.44592 v 1.83444 z m 2.649747,0 v -1.83444 h -2.44592 v 1.83444 z m 2.649747,0 v -1.83444 h -2.44592 v 1.83444 z m 2.649747,0 v -1.83444 h -2.445921 v 1.83444 z"
         id="path8" />
      <path
         style="fill:#0000ff;fill-opacity:0.98731;stroke:#0000ff;stroke-opacity:0.875634"
         d="m 60.761475,35.123374 v -1.83444 h -2.44592 v 1.83444 z m 0,-2.038267 v -1.83444 h -2.44592 v 1.83444 z m 0,-2.038267 V 29.2124 h -2.44592 v 1.83444 z m 0,-2.038267 v -1.83444 h -2.44592 v 1.83444 z m 0,-4.076533 V 23.0976 h -2.44592 v 1.83444 z m 0,-2.038267 v -1.83444 h -2.44592 v 1.83444 z m 5.299493,12.229601 v -1.83444 h -2.44592 v 1.83444 z m 0,-2.038267 v -1.83444 h -2.44592 v 1.83444 z m 0,-2.038267 V 29.2124 h -2.44592 v 1.83444 z m 0,-2.038267 v -1.83444 h -2.44592 v 1.83444 z m 0,-4.076533 V 23.0976 h -2.44592 v 1.83444 z m 2.853574,12.433427 H 58.111728 V 18.81724 h 10.802814 z m -0.203827,-2.242093 v -1.83444 h -2.44592 v 1.83444 z m 0,-2.038267 v -1.83444 h -2.44592 v 1.83444 z m 0,-2.038267 V 29.2124 h -2.44592 v 1.83444 z m 0,-2.038267 v -1.83444 h -2.44592 v 1.83444 z m 0,-2.038266 v -1.83444 h -2.44592 v 1.83444 z m 0,-2.038267 V 23.0976 h -2.44592 v 1.83444 z m 0,-2.038267 v -1.83444 h -2.44592 v 1.83444 z M 60.761475,37.16164 V 35.3272 h -2.44592 v 1.83444 z m 2.649747,0 V 35.3272 h -2.44592 v 1.83444 z m 2.649746,0 V 35.3272 h -2.44592 v 1.83444 z m 2.649747,0 V 35.3272 h -2.44592 v 1.83444 z m -7.94924,-16.306133 v -1.83444 h -2.44592 v 1.83444 z m 2.649747,0 v -1.83444 h -2.44592 v 1.83444 z m 2.649746,0 v -1.83444 h -2.44592 v 1.83444 z m 2.649747,0 v -1.83444 h -2.44592 v 1.83444 z"
         id="path9" />
      <path
         style="fill:#808080;stroke:#808080;stroke-opacity:0.8"
         d="m 71.360466,35.123374 v -1.83444 h -2.44592 v 1.83444 z m 0,-2.038267 v -1.83444 h -2.44592 v 1.83444 z m 0,-2.038267 V 29.2124 h -2.44592 v 1.83444 z m 0,-2.038267 v -1.83444 h -2.44592 v 1.83444 z m 0,-4.076533 V 23.0976 h -2.44592 v 1.83444 z m 0,-2.038267 v -1.83444 h -2.44592 v 1.83444 z m 5.299494,12.229601 v -1.83444 h -2.44592 v 1.83444 z m 0,-2.038267 v -1.83444 h -2.44592 v 1.83444 z m 0,-2.038267 V 29.2124 h -2.44592 v 1.83444 z m 0,-2.038267 v -1.83444 h -2.44592 v 1.83444 z m 0,-4.076533 V 23.0976 h -2.44592 v 1.83444 z m 2.853573,12.433427 H 68.71072 V 18.81724 h 10.802813 z m -0.203827,-2.242093 v -1.83444 h -2.44592 v 1.83444 z m 0,-2.038267 v -1.83444 h -2.44592 v 1.83444 z m 0,-2.038267 V 29.2124 h -2.44592 v 1.83444 z m 0,-2.038267 v -1.83444 h -2.44592 v 1.83444 z m 0,-2.038266 v -1.83444 h -2.44592 v 1.83444 z m 0,-2.038267 V 23.0976 h -2.44592 v 1.83444 z m 0,-2.038267 v -1.83444 h -2.44592 v 1.83444 z M 71.360466,37.16164 V 35.3272 h -2.44592 v 1.83444 z m 2.649747,0 V 35.3272 h -2.44592 v 1.83444 z m 2.649747,0 V 35.3272 h -2.44592 v 1.83444 z m 2.649746,0 V 35.3272 h -2.44592 v 1.83444 z m -7.94924,-16.306133 v -1.83444 h -2.44592 v 1.83444 z m 2.649747,0 v -1.83444 h -2.44592 v 1.83444 z m 2.649747,0 v -1.83444 h -2.44592 v 1.83444 z m 2.649746,0 v -1.83444 h -2.44592 v 1.83444 z"
         id="path10" />
    </g>
  </g>
</svg>
