<?xml version="1.0" encoding="UTF-8" standalone="no"?>
<!-- Created with Inkscape (http://www.inkscape.org/) -->

<svg
   width="32.265373mm"
   height="32.264999mm"
   viewBox="0 0 32.265373 32.265"
   version="1.1"
   id="svg1"
   inkscape:version="1.3.2 (091e20e, 2023-11-25)"
   sodipodi:docname="logo-as-text.svg"
   inkscape:export-filename="favicon.svg"
   inkscape:export-xdpi="100.76437"
   inkscape:export-ydpi="100.76437"
   xmlns:inkscape="http://www.inkscape.org/namespaces/inkscape"
   xmlns:sodipodi="http://sodipodi.sourceforge.net/DTD/sodipodi-0.dtd"
   xmlns="http://www.w3.org/2000/svg"
   xmlns:svg="http://www.w3.org/2000/svg">
  <sodipodi:namedview
     id="namedview1"
     pagecolor="#ffffff"
     bordercolor="#000000"
     borderopacity="0.25"
     inkscape:showpageshadow="2"
     inkscape:pageopacity="0.0"
     inkscape:pagecheckerboard="0"
     inkscape:deskcolor="#d1d1d1"
     inkscape:document-units="mm"
     inkscape:zoom="1.6819304"
     inkscape:cx="221.17443"
     inkscape:cy="96.020619"
     inkscape:window-width="1512"
     inkscape:window-height="916"
     inkscape:window-x="-12"
     inkscape:window-y="42"
     inkscape:window-maximized="0"
     inkscape:current-layer="layer1"
     showguides="false" />
  <defs
     id="defs1" />
  <g
     inkscape:label="Layer 1"
     inkscape:groupmode="layer"
     id="layer1"
     transform="translate(-4.984495,-18.684948)">
    <g
       id="text1"
       style="font-size:18.3444px;font-family:Gridtile;-inkscape-font-specification:'Gridtile, Normal';fill:#fa9ed6;fill-rule:evenodd;stroke:#ecace7;stroke-width:0.264583;stroke-opacity:0.795745"
       inkscape:label="text1"
       aria-label="sci">
      <path
         style="fill:#ff0000;stroke:#ff0000;stroke-opacity:1"
         d="m 7.7665327,39.96428 v -1.83444 h -2.44592 v 1.83444 z m 0,-8.153067 v -1.83444 h -2.44592 v 1.83444 z m 0,-2.038266 v -1.83444 h -2.44592 v 1.83444 z M 10.416279,39.96428 V 38.12984 H 7.9703594 v 1.83444 z m 0,-4.076533 v -1.83444 H 7.9703594 v 1.83444 z m 0,-4.076534 v -1.83444 H 7.9703594 v 1.83444 z m 0,-2.038266 v -1.83444 H 7.9703594 v 1.83444 z m 2.649747,6.1148 v -1.83444 h -2.44592 v 1.83444 z m 0,-4.076534 v -1.83444 h -2.44592 v 1.83444 z m 0,-2.038266 v -1.83444 h -2.44592 v 1.83444 z M 15.9196,44.24464 H 5.116786 V 25.696413 H 15.9196 Z m -0.203827,-2.242093 v -1.83444 h -2.44592 v 1.83444 z m 0,-2.038267 v -1.83444 h -2.44592 v 1.83444 z m 0,-2.038267 v -1.83444 h -2.44592 v 1.83444 z m 0,-2.038266 v -1.83444 h -2.44592 v 1.83444 z m 0,-2.038267 v -1.83444 h -2.44592 v 1.83444 z m 0,-2.038267 v -1.83444 h -2.44592 v 1.83444 z m 0,-2.038266 v -1.83444 h -2.44592 v 1.83444 z M 7.7665327,44.040814 v -1.83444 h -2.44592 v 1.83444 z m 2.6497463,0 v -1.83444 H 7.9703594 v 1.83444 z m 2.649747,0 v -1.83444 h -2.44592 v 1.83444 z m 2.649747,0 v -1.83444 h -2.44592 v 1.83444 z M 7.7665327,27.73468 v -1.83444 h -2.44592 v 1.83444 z m 2.6497463,0 V 25.90024 H 7.9703594 v 1.83444 z m 2.649747,0 v -1.83444 h -2.44592 v 1.83444 z m 2.649747,0 v -1.83444 h -2.44592 v 1.83444 z"
         id="path7" />
      <path
         style="fill:#00ff00;stroke:#00ff00;stroke-opacity:1"
         d="m 18.365521,31.811213 v -1.83444 h -2.44592 v 1.83444 z m 0,-2.038266 v -1.83444 h -2.44592 v 1.83444 z m 2.649747,10.191333 v -1.83444 h -2.44592 v 1.83444 z m 0,-2.038267 v -1.83444 h -2.44592 v 1.83444 z m 0,-2.038266 v -1.83444 h -2.44592 v 1.83444 z m 0,-4.076534 v -1.83444 h -2.44592 v 1.83444 z m 0,-2.038266 v -1.83444 h -2.44592 v 1.83444 z m 2.649747,8.153066 v -1.83444 h -2.44592 v 1.83444 z m 0,-6.1148 v -1.83444 h -2.44592 v 1.83444 z m 0,-2.038266 v -1.83444 h -2.44592 v 1.83444 z M 26.518588,44.24464 H 15.715775 V 25.696413 h 10.802813 z m -0.203827,-2.242093 v -1.83444 h -2.44592 v 1.83444 z m 0,-2.038267 v -1.83444 h -2.44592 v 1.83444 z m 0,-2.038267 v -1.83444 h -2.44592 v 1.83444 z m 0,-2.038266 v -1.83444 h -2.44592 v 1.83444 z m 0,-2.038267 v -1.83444 h -2.44592 v 1.83444 z m 0,-2.038267 v -1.83444 h -2.44592 v 1.83444 z m 0,-2.038266 v -1.83444 h -2.44592 v 1.83444 z m -7.94924,14.267867 v -1.83444 h -2.44592 v 1.83444 z m 2.649747,0 v -1.83444 h -2.44592 v 1.83444 z m 2.649747,0 v -1.83444 h -2.44592 v 1.83444 z m 2.649746,0 v -1.83444 h -2.44592 v 1.83444 z M 18.365521,27.73468 v -1.83444 h -2.44592 v 1.83444 z m 2.649747,0 v -1.83444 h -2.44592 v 1.83444 z m 2.649747,0 v -1.83444 h -2.44592 v 1.83444 z m 2.649746,0 v -1.83444 h -2.44592 v 1.83444 z"
         id="path8" />
      <path
         style="fill:#0000ff;fill-opacity:0.988235;stroke:#0000ff;stroke-opacity:0.988235"
         d="m 28.96451,39.96428 v -1.83444 h -2.44592 v 1.83444 z m 0,-2.038267 v -1.83444 h -2.44592 v 1.83444 z m 0,-2.038266 v -1.83444 h -2.44592 v 1.83444 z m 0,-4.076534 v -1.83444 h -2.44592 v 1.83444 z m 0,-2.038266 v -1.83444 h -2.44592 v 1.83444 z m 2.649747,2.038266 v -1.83444 h -2.445921 v 1.83444 z m 2.649746,8.153067 v -1.83444 h -2.44592 v 1.83444 z m 0,-2.038267 v -1.83444 h -2.44592 v 1.83444 z m 0,-2.038266 v -1.83444 h -2.44592 v 1.83444 z m 0,-2.038267 v -1.83444 h -2.44592 v 1.83444 z m 0,-2.038267 v -1.83444 h -2.44592 v 1.83444 z m 0,-2.038266 v -1.83444 h -2.44592 v 1.83444 z M 37.117577,44.24464 H 26.314763 V 25.696413 H 37.117577 Z M 36.91375,42.002547 v -1.83444 h -2.44592 v 1.83444 z m 0,-2.038267 v -1.83444 h -2.44592 v 1.83444 z m 0,-2.038267 v -1.83444 h -2.44592 v 1.83444 z m 0,-2.038266 v -1.83444 h -2.44592 v 1.83444 z m 0,-2.038267 v -1.83444 h -2.44592 v 1.83444 z m 0,-2.038267 v -1.83444 h -2.44592 v 1.83444 z m 0,-2.038266 v -1.83444 h -2.44592 v 1.83444 z m -7.94924,14.267867 v -1.83444 h -2.44592 v 1.83444 z m 2.649747,0 v -1.83444 h -2.445921 v 1.83444 z m 2.649746,0 v -1.83444 h -2.44592 v 1.83444 z m 2.649747,0 v -1.83444 h -2.44592 v 1.83444 z M 28.96451,27.73468 v -1.83444 h -2.44592 v 1.83444 z m 2.649747,0 v -1.83444 h -2.445921 v 1.83444 z m 2.649746,0 v -1.83444 h -2.44592 v 1.83444 z m 2.649747,0 v -1.83444 h -2.44592 v 1.83444 z"
         id="path9" />
    </g>
  </g>
</svg>
